<?xml version="1.0" encoding="UTF-8" standalone="no"?>
<!DOCTYPE svg PUBLIC "-//W3C//DTD SVG 1.1//EN"
 "http://www.w3.org/Graphics/SVG/1.1/DTD/svg11.dtd">
<!-- Generated by graphviz version 2.36.0 (20140111.2315)
 -->
<!-- Title: player::getCard Pages: 1 -->
<svg width="336pt" height="28pt"
 viewBox="0.00 0.00 336.00 28.00" xmlns="http://www.w3.org/2000/svg" xmlns:xlink="http://www.w3.org/1999/xlink">
<g id="graph0" class="graph" transform="scale(1 1) rotate(0) translate(4 24)">
<title>player::getCard</title>
<!-- Node1 -->
<g id="node1" class="node"><title>Node1</title>
<polygon fill="#bfbfbf" stroke="black" points="0.5,-0.5 0.5,-19.5 83.5,-19.5 83.5,-0.5 0.5,-0.5"/>
<text text-anchor="middle" x="42" y="-7.5" font-family="Helvetica,sans-Serif" font-size="10.00">player::getCard</text>
</g>
<!-- Node2 -->
<g id="node2" class="node"><title>Node2</title>
<g id="a_node2"><a xlink:href="../../db/d43/classmatch.html#ab4c417d094231254db1d0fb16788d9d1" target="_top" xlink:title="match::dealCards verteilt die Karten des Spiels gleichmäßig an alle Spieler ">
<polygon fill="none" stroke="black" points="120,-0.5 120,-19.5 214,-19.5 214,-0.5 120,-0.5"/>
<text text-anchor="middle" x="167" y="-7.5" font-family="Helvetica,sans-Serif" font-size="10.00">match::dealCards</text>
</a>
</g>
</g>
<!-- Node1&#45;&gt;Node2 -->
<g id="edge1" class="edge"><title>Node1&#45;&gt;Node2</title>
<path fill="none" stroke="midnightblue" d="M93.6408,-10C102.335,-10 111.328,-10 119.895,-10"/>
<polygon fill="midnightblue" stroke="midnightblue" points="93.6157,-6.5001 83.6157,-10 93.6157,-13.5001 93.6157,-6.5001"/>
</g>
<!-- Node3 -->
<g id="node3" class="node"><title>Node3</title>
<g id="a_node3"><a xlink:href="../../db/d43/classmatch.html#a324c10417644283bb7101859392ed252" target="_top" xlink:title="match::match Erstellt das Masterdeck aus bestehenden Decks und verteilt die Karten an alle Spieler...">
<polygon fill="none" stroke="black" points="250.5,-0.5 250.5,-19.5 327.5,-19.5 327.5,-0.5 250.5,-0.5"/>
<text text-anchor="middle" x="289" y="-7.5" font-family="Helvetica,sans-Serif" font-size="10.00">match::match</text>
</a>
</g>
</g>
<!-- Node2&#45;&gt;Node3 -->
<g id="edge2" class="edge"><title>Node2&#45;&gt;Node3</title>
<path fill="none" stroke="midnightblue" d="M224.055,-10C232.996,-10 242.055,-10 250.432,-10"/>
<polygon fill="midnightblue" stroke="midnightblue" points="224.052,-6.5001 214.052,-10 224.052,-13.5001 224.052,-6.5001"/>
</g>
</g>
</svg>
