<?xml version="1.0" encoding="UTF-8" standalone="no"?>
<!DOCTYPE svg PUBLIC "-//W3C//DTD SVG 1.1//EN"
 "http://www.w3.org/Graphics/SVG/1.1/DTD/svg11.dtd">
<!-- Generated by graphviz version 2.36.0 (20140111.2315)
 -->
<!-- Title: main.cpp Pages: 1 -->
<svg width="324pt" height="252pt"
 viewBox="0.00 0.00 324.00 252.00" xmlns="http://www.w3.org/2000/svg" xmlns:xlink="http://www.w3.org/1999/xlink">
<g id="graph0" class="graph" transform="scale(1 1) rotate(0) translate(4 248)">
<title>main.cpp</title>
<!-- Node1 -->
<g id="node1" class="node"><title>Node1</title>
<polygon fill="#bfbfbf" stroke="black" points="35,-224.5 35,-243.5 91,-243.5 91,-224.5 35,-224.5"/>
<text text-anchor="middle" x="63" y="-231.5" font-family="Helvetica,sans-Serif" font-size="10.00">main.cpp</text>
</g>
<!-- Node2 -->
<g id="node2" class="node"><title>Node2</title>
<polygon fill="none" stroke="#bfbfbf" points="0,-56.5 0,-75.5 54,-75.5 54,-56.5 0,-56.5"/>
<text text-anchor="middle" x="27" y="-63.5" font-family="Helvetica,sans-Serif" font-size="10.00">iostream</text>
</g>
<!-- Node1&#45;&gt;Node2 -->
<g id="edge1" class="edge"><title>Node1&#45;&gt;Node2</title>
<path fill="none" stroke="midnightblue" d="M61.0645,-224.075C55.3978,-197.945 38.7565,-121.211 31.0287,-85.577"/>
<polygon fill="midnightblue" stroke="midnightblue" points="34.3981,-84.5991 28.8581,-75.5681 27.5571,-86.0828 34.3981,-84.5991"/>
</g>
<!-- Node3 -->
<g id="node3" class="node"><title>Node3</title>
<g id="a_node3"><a xlink:href="../../d1/d61/match_8h.html" target="_top" xlink:title="match.h">
<polygon fill="none" stroke="black" points="78,-168.5 78,-187.5 130,-187.5 130,-168.5 78,-168.5"/>
<text text-anchor="middle" x="104" y="-175.5" font-family="Helvetica,sans-Serif" font-size="10.00">match.h</text>
</a>
</g>
</g>
<!-- Node1&#45;&gt;Node3 -->
<g id="edge2" class="edge"><title>Node1&#45;&gt;Node3</title>
<path fill="none" stroke="midnightblue" d="M69.7703,-224.083C75.5616,-216.455 84.0585,-205.264 91.1375,-195.941"/>
<polygon fill="midnightblue" stroke="midnightblue" points="94.0961,-197.832 97.3557,-187.751 88.521,-193.599 94.0961,-197.832"/>
</g>
<!-- Node4 -->
<g id="node4" class="node"><title>Node4</title>
<polygon fill="none" stroke="#bfbfbf" points="80,-0.5 80,-19.5 124,-19.5 124,-0.5 80,-0.5"/>
<text text-anchor="middle" x="102" y="-7.5" font-family="Helvetica,sans-Serif" font-size="10.00">vector</text>
</g>
<!-- Node3&#45;&gt;Node4 -->
<g id="edge3" class="edge"><title>Node3&#45;&gt;Node4</title>
<path fill="none" stroke="midnightblue" d="M105.739,-168.419C107.472,-159.399 110.013,-144.77 111,-132 113.805,-95.7218 108.727,-53.3118 105.127,-29.5615"/>
<polygon fill="midnightblue" stroke="midnightblue" points="108.555,-28.8316 103.52,-19.5098 101.643,-29.9371 108.555,-28.8316"/>
</g>
<!-- Node5 -->
<g id="node5" class="node"><title>Node5</title>
<g id="a_node5"><a xlink:href="../../d4/d13/set_8h.html" target="_top" xlink:title="set.h">
<polygon fill="none" stroke="black" points="159,-56.5 159,-75.5 197,-75.5 197,-56.5 159,-56.5"/>
<text text-anchor="middle" x="178" y="-63.5" font-family="Helvetica,sans-Serif" font-size="10.00">set.h</text>
</a>
</g>
</g>
<!-- Node3&#45;&gt;Node5 -->
<g id="edge4" class="edge"><title>Node3&#45;&gt;Node5</title>
<path fill="none" stroke="midnightblue" d="M113.253,-168.306C122.117,-159.662 135.511,-145.741 145,-132 155.214,-117.209 164.252,-98.8223 170.275,-85.3829"/>
<polygon fill="midnightblue" stroke="midnightblue" points="173.651,-86.3951 174.424,-75.8285 167.231,-83.6069 173.651,-86.3951"/>
</g>
<!-- Node9 -->
<g id="node9" class="node"><title>Node9</title>
<g id="a_node9"><a xlink:href="../../d3/d62/player_8h.html" target="_top" xlink:title="Datie zur Verwaltung der Klasse(n) player. ">
<polygon fill="none" stroke="black" points="51.5,-112.5 51.5,-131.5 102.5,-131.5 102.5,-112.5 51.5,-112.5"/>
<text text-anchor="middle" x="77" y="-119.5" font-family="Helvetica,sans-Serif" font-size="10.00">player.h</text>
</a>
</g>
</g>
<!-- Node3&#45;&gt;Node9 -->
<g id="edge9" class="edge"><title>Node3&#45;&gt;Node9</title>
<path fill="none" stroke="midnightblue" d="M99.5415,-168.083C95.8457,-160.691 90.4766,-149.953 85.9055,-140.811"/>
<polygon fill="midnightblue" stroke="midnightblue" points="88.9782,-139.13 81.3755,-131.751 82.7172,-142.261 88.9782,-139.13"/>
</g>
<!-- Node5&#45;&gt;Node4 -->
<g id="edge8" class="edge"><title>Node5&#45;&gt;Node4</title>
<path fill="none" stroke="midnightblue" d="M165.789,-56.324C154.224,-48.1066 136.625,-35.6017 122.839,-25.8069"/>
<polygon fill="midnightblue" stroke="midnightblue" points="124.612,-22.7729 114.433,-19.8339 120.557,-28.4791 124.612,-22.7729"/>
</g>
<!-- Node6 -->
<g id="node6" class="node"><title>Node6</title>
<polygon fill="none" stroke="#bfbfbf" points="142,-0.5 142,-19.5 188,-19.5 188,-0.5 142,-0.5"/>
<text text-anchor="middle" x="165" y="-7.5" font-family="Helvetica,sans-Serif" font-size="10.00">stdio.h</text>
</g>
<!-- Node5&#45;&gt;Node6 -->
<g id="edge5" class="edge"><title>Node5&#45;&gt;Node6</title>
<path fill="none" stroke="midnightblue" d="M175.853,-56.083C174.131,-48.9272 171.653,-38.6353 169.5,-29.6911"/>
<polygon fill="midnightblue" stroke="midnightblue" points="172.85,-28.6541 167.107,-19.7511 166.045,-30.2925 172.85,-28.6541"/>
</g>
<!-- Node7 -->
<g id="node7" class="node"><title>Node7</title>
<polygon fill="none" stroke="#bfbfbf" points="206,-0.5 206,-19.5 254,-19.5 254,-0.5 206,-0.5"/>
<text text-anchor="middle" x="230" y="-7.5" font-family="Helvetica,sans-Serif" font-size="10.00">stdlib.h</text>
</g>
<!-- Node5&#45;&gt;Node7 -->
<g id="edge6" class="edge"><title>Node5&#45;&gt;Node7</title>
<path fill="none" stroke="midnightblue" d="M186.587,-56.083C194.159,-48.2195 205.378,-36.5688 214.514,-27.0813"/>
<polygon fill="midnightblue" stroke="midnightblue" points="217.158,-29.3821 221.573,-19.7511 212.115,-24.5266 217.158,-29.3821"/>
</g>
<!-- Node8 -->
<g id="node8" class="node"><title>Node8</title>
<polygon fill="none" stroke="#bfbfbf" points="272,-0.5 272,-19.5 316,-19.5 316,-0.5 272,-0.5"/>
<text text-anchor="middle" x="294" y="-7.5" font-family="Helvetica,sans-Serif" font-size="10.00">time.h</text>
</g>
<!-- Node5&#45;&gt;Node8 -->
<g id="edge7" class="edge"><title>Node5&#45;&gt;Node8</title>
<path fill="none" stroke="midnightblue" d="M196.381,-56.4435C215.216,-47.6751 244.731,-33.9355 266.379,-23.8579"/>
<polygon fill="midnightblue" stroke="midnightblue" points="268.117,-26.9098 275.705,-19.5164 265.162,-20.5637 268.117,-26.9098"/>
</g>
<!-- Node9&#45;&gt;Node2 -->
<g id="edge11" class="edge"><title>Node9&#45;&gt;Node2</title>
<path fill="none" stroke="midnightblue" d="M68.7435,-112.083C61.5353,-104.298 50.8902,-92.8015 42.1542,-83.3665"/>
<polygon fill="midnightblue" stroke="midnightblue" points="44.4651,-80.7108 35.1028,-75.7511 39.3288,-85.4666 44.4651,-80.7108"/>
</g>
<!-- Node9&#45;&gt;Node4 -->
<g id="edge10" class="edge"><title>Node9&#45;&gt;Node4</title>
<path fill="none" stroke="midnightblue" d="M78.9617,-112.368C82.9961,-94.617 92.3031,-53.6664 97.7733,-29.5974"/>
<polygon fill="midnightblue" stroke="midnightblue" points="101.244,-30.1185 100.047,-19.5914 94.4182,-28.567 101.244,-30.1185"/>
</g>
<!-- Node9&#45;&gt;Node5 -->
<g id="edge12" class="edge"><title>Node9&#45;&gt;Node5</title>
<path fill="none" stroke="midnightblue" d="M93.2274,-112.324C109.351,-103.703 134.3,-90.3643 152.964,-80.3855"/>
<polygon fill="midnightblue" stroke="midnightblue" points="154.644,-83.456 161.813,-75.6545 151.344,-77.283 154.644,-83.456"/>
</g>
</g>
</svg>
