<?xml version="1.0" encoding="UTF-8" standalone="no"?>
<!DOCTYPE svg PUBLIC "-//W3C//DTD SVG 1.1//EN"
 "http://www.w3.org/Graphics/SVG/1.1/DTD/svg11.dtd">
<!-- Generated by graphviz version 2.36.0 (20140111.2315)
 -->
<!-- Title: player.cpp Pages: 1 -->
<svg width="243pt" height="196pt"
 viewBox="0.00 0.00 243.00 196.00" xmlns="http://www.w3.org/2000/svg" xmlns:xlink="http://www.w3.org/1999/xlink">
<g id="graph0" class="graph" transform="scale(1 1) rotate(0) translate(4 192)">
<title>player.cpp</title>
<!-- Node1 -->
<g id="node1" class="node"><title>Node1</title>
<polygon fill="#bfbfbf" stroke="black" points="45,-168.5 45,-187.5 107,-187.5 107,-168.5 45,-168.5"/>
<text text-anchor="middle" x="76" y="-175.5" font-family="Helvetica,sans-Serif" font-size="10.00">player.cpp</text>
</g>
<!-- Node2 -->
<g id="node2" class="node"><title>Node2</title>
<g id="a_node2"><a xlink:href="../../d3/d62/player_8h.html" target="_top" xlink:title="Datie zur Verwaltung der Klasse(n) player. ">
<polygon fill="none" stroke="black" points="50.5,-112.5 50.5,-131.5 101.5,-131.5 101.5,-112.5 50.5,-112.5"/>
<text text-anchor="middle" x="76" y="-119.5" font-family="Helvetica,sans-Serif" font-size="10.00">player.h</text>
</a>
</g>
</g>
<!-- Node1&#45;&gt;Node2 -->
<g id="edge1" class="edge"><title>Node1&#45;&gt;Node2</title>
<path fill="none" stroke="midnightblue" d="M76,-168.083C76,-161.006 76,-150.861 76,-141.986"/>
<polygon fill="midnightblue" stroke="midnightblue" points="79.5001,-141.751 76,-131.751 72.5001,-141.751 79.5001,-141.751"/>
</g>
<!-- Node3 -->
<g id="node3" class="node"><title>Node3</title>
<polygon fill="none" stroke="#bfbfbf" points="-1,-0.5 -1,-19.5 43,-19.5 43,-0.5 -1,-0.5"/>
<text text-anchor="middle" x="21" y="-7.5" font-family="Helvetica,sans-Serif" font-size="10.00">vector</text>
</g>
<!-- Node2&#45;&gt;Node3 -->
<g id="edge2" class="edge"><title>Node2&#45;&gt;Node3</title>
<path fill="none" stroke="midnightblue" d="M67.4188,-112.431C59.2973,-103.879 47.2935,-90.0246 40,-76 32.3717,-61.3318 27.3909,-43.1649 24.4508,-29.7692"/>
<polygon fill="midnightblue" stroke="midnightblue" points="27.8527,-28.933 22.4477,-19.8206 20.9904,-30.3147 27.8527,-28.933"/>
</g>
<!-- Node4 -->
<g id="node4" class="node"><title>Node4</title>
<polygon fill="none" stroke="#bfbfbf" points="49,-56.5 49,-75.5 103,-75.5 103,-56.5 49,-56.5"/>
<text text-anchor="middle" x="76" y="-63.5" font-family="Helvetica,sans-Serif" font-size="10.00">iostream</text>
</g>
<!-- Node2&#45;&gt;Node4 -->
<g id="edge3" class="edge"><title>Node2&#45;&gt;Node4</title>
<path fill="none" stroke="midnightblue" d="M76,-112.083C76,-105.006 76,-94.8611 76,-85.9865"/>
<polygon fill="midnightblue" stroke="midnightblue" points="79.5001,-85.751 76,-75.7511 72.5001,-85.7511 79.5001,-85.751"/>
</g>
<!-- Node5 -->
<g id="node5" class="node"><title>Node5</title>
<g id="a_node5"><a xlink:href="../../d4/d13/set_8h.html" target="_top" xlink:title="set.h">
<polygon fill="none" stroke="black" points="121,-56.5 121,-75.5 159,-75.5 159,-56.5 121,-56.5"/>
<text text-anchor="middle" x="140" y="-63.5" font-family="Helvetica,sans-Serif" font-size="10.00">set.h</text>
</a>
</g>
</g>
<!-- Node2&#45;&gt;Node5 -->
<g id="edge4" class="edge"><title>Node2&#45;&gt;Node5</title>
<path fill="none" stroke="midnightblue" d="M86.2827,-112.324C95.8363,-104.263 110.28,-92.0765 121.784,-82.3695"/>
<polygon fill="midnightblue" stroke="midnightblue" points="124.144,-84.9577 129.53,-75.8339 119.63,-79.6076 124.144,-84.9577"/>
</g>
<!-- Node5&#45;&gt;Node3 -->
<g id="edge8" class="edge"><title>Node5&#45;&gt;Node3</title>
<path fill="none" stroke="midnightblue" d="M121.144,-56.4435C101.734,-47.6356 71.2699,-33.8116 49.0355,-23.722"/>
<polygon fill="midnightblue" stroke="midnightblue" points="50.3203,-20.4615 39.7677,-19.5164 47.4277,-26.836 50.3203,-20.4615"/>
</g>
<!-- Node6 -->
<g id="node6" class="node"><title>Node6</title>
<polygon fill="none" stroke="#bfbfbf" points="61,-0.5 61,-19.5 107,-19.5 107,-0.5 61,-0.5"/>
<text text-anchor="middle" x="84" y="-7.5" font-family="Helvetica,sans-Serif" font-size="10.00">stdio.h</text>
</g>
<!-- Node5&#45;&gt;Node6 -->
<g id="edge5" class="edge"><title>Node5&#45;&gt;Node6</title>
<path fill="none" stroke="midnightblue" d="M131.003,-56.324C122.806,-48.4196 110.494,-36.5482 100.528,-26.9377"/>
<polygon fill="midnightblue" stroke="midnightblue" points="102.789,-24.2558 93.1611,-19.8339 97.9301,-29.2947 102.789,-24.2558"/>
</g>
<!-- Node7 -->
<g id="node7" class="node"><title>Node7</title>
<polygon fill="none" stroke="#bfbfbf" points="125,-0.5 125,-19.5 173,-19.5 173,-0.5 125,-0.5"/>
<text text-anchor="middle" x="149" y="-7.5" font-family="Helvetica,sans-Serif" font-size="10.00">stdlib.h</text>
</g>
<!-- Node5&#45;&gt;Node7 -->
<g id="edge6" class="edge"><title>Node5&#45;&gt;Node7</title>
<path fill="none" stroke="midnightblue" d="M141.486,-56.083C142.679,-48.9272 144.394,-38.6353 145.885,-29.6911"/>
<polygon fill="midnightblue" stroke="midnightblue" points="149.35,-30.1904 147.541,-19.7511 142.445,-29.0396 149.35,-30.1904"/>
</g>
<!-- Node8 -->
<g id="node8" class="node"><title>Node8</title>
<polygon fill="none" stroke="#bfbfbf" points="191,-0.5 191,-19.5 235,-19.5 235,-0.5 191,-0.5"/>
<text text-anchor="middle" x="213" y="-7.5" font-family="Helvetica,sans-Serif" font-size="10.00">time.h</text>
</g>
<!-- Node5&#45;&gt;Node8 -->
<g id="edge7" class="edge"><title>Node5&#45;&gt;Node8</title>
<path fill="none" stroke="midnightblue" d="M151.729,-56.324C162.837,-48.1066 179.742,-35.6017 192.983,-25.8069"/>
<polygon fill="midnightblue" stroke="midnightblue" points="195.1,-28.5948 201.058,-19.8339 190.937,-22.9671 195.1,-28.5948"/>
</g>
</g>
</svg>
