<?xml version="1.0" encoding="UTF-8" standalone="no"?>
<!DOCTYPE svg PUBLIC "-//W3C//DTD SVG 1.1//EN"
 "http://www.w3.org/Graphics/SVG/1.1/DTD/svg11.dtd">
<!-- Generated by graphviz version 2.36.0 (20140111.2315)
 -->
<!-- Title: match::getCardsFromDeck Pages: 1 -->
<svg width="296pt" height="104pt"
 viewBox="0.00 0.00 296.00 104.00" xmlns="http://www.w3.org/2000/svg" xmlns:xlink="http://www.w3.org/1999/xlink">
<g id="graph0" class="graph" transform="scale(1 1) rotate(0) translate(4 100)">
<title>match::getCardsFromDeck</title>
<!-- Node1 -->
<g id="node1" class="node"><title>Node1</title>
<polygon fill="#bfbfbf" stroke="black" points="0.5,-38.5 0.5,-57.5 135.5,-57.5 135.5,-38.5 0.5,-38.5"/>
<text text-anchor="middle" x="68" y="-45.5" font-family="Helvetica,sans-Serif" font-size="10.00">match::getCardsFromDeck</text>
</g>
<!-- Node2 -->
<g id="node2" class="node"><title>Node2</title>
<g id="a_node2"><a xlink:href="../../d7/dab/classdeck.html#a26cfcf4196728cde8b904dbcf63bc815" target="_top" xlink:title="deck::getCards">
<polygon fill="none" stroke="black" points="188.5,-76.5 188.5,-95.5 271.5,-95.5 271.5,-76.5 188.5,-76.5"/>
<text text-anchor="middle" x="230" y="-83.5" font-family="Helvetica,sans-Serif" font-size="10.00">deck::getCards</text>
</a>
</g>
</g>
<!-- Node1&#45;&gt;Node2 -->
<g id="edge1" class="edge"><title>Node1&#45;&gt;Node2</title>
<path fill="none" stroke="midnightblue" d="M109.375,-57.589C130.488,-62.6035 156.529,-68.7881 178.917,-74.1053"/>
<polygon fill="midnightblue" stroke="midnightblue" points="178.377,-77.5744 188.916,-76.4799 179.995,-70.7639 178.377,-77.5744"/>
</g>
<!-- Node3 -->
<g id="node3" class="node"><title>Node3</title>
<g id="a_node3"><a xlink:href="../../d7/dab/classdeck.html#a8e33dbdafe69c55d968526d9543245ec" target="_top" xlink:title="deck::getRandomCard zieht eine zufällige Karte auf dem Kartendeck und entfernt diese. ">
<polygon fill="none" stroke="black" points="172.5,-38.5 172.5,-57.5 287.5,-57.5 287.5,-38.5 172.5,-38.5"/>
<text text-anchor="middle" x="230" y="-45.5" font-family="Helvetica,sans-Serif" font-size="10.00">deck::getRandomCard</text>
</a>
</g>
</g>
<!-- Node1&#45;&gt;Node3 -->
<g id="edge2" class="edge"><title>Node1&#45;&gt;Node3</title>
<path fill="none" stroke="midnightblue" d="M135.927,-48C144.667,-48 153.621,-48 162.356,-48"/>
<polygon fill="midnightblue" stroke="midnightblue" points="162.484,-51.5001 172.484,-48 162.484,-44.5001 162.484,-51.5001"/>
</g>
<!-- Node4 -->
<g id="node4" class="node"><title>Node4</title>
<g id="a_node4"><a xlink:href="../../d7/dab/classdeck.html#a3a190c2877d3822b7379d6a9fa2c050b" target="_top" xlink:title="deck::isEmpty">
<polygon fill="none" stroke="black" points="190,-0.5 190,-19.5 270,-19.5 270,-0.5 190,-0.5"/>
<text text-anchor="middle" x="230" y="-7.5" font-family="Helvetica,sans-Serif" font-size="10.00">deck::isEmpty</text>
</a>
</g>
</g>
<!-- Node1&#45;&gt;Node4 -->
<g id="edge3" class="edge"><title>Node1&#45;&gt;Node4</title>
<path fill="none" stroke="midnightblue" d="M109.375,-38.411C130.826,-33.3164 157.361,-27.0142 179.986,-21.6408"/>
<polygon fill="midnightblue" stroke="midnightblue" points="180.824,-25.0393 189.744,-19.3232 179.206,-18.2287 180.824,-25.0393"/>
</g>
</g>
</svg>
