<?xml version="1.0" encoding="UTF-8" standalone="no"?>
<!DOCTYPE svg PUBLIC "-//W3C//DTD SVG 1.1//EN"
 "http://www.w3.org/Graphics/SVG/1.1/DTD/svg11.dtd">
<!-- Generated by graphviz version 2.36.0 (20140111.2315)
 -->
<!-- Title: match::getCardsFromDeck Pages: 1 -->
<svg width="418pt" height="28pt"
 viewBox="0.00 0.00 418.00 28.00" xmlns="http://www.w3.org/2000/svg" xmlns:xlink="http://www.w3.org/1999/xlink">
<g id="graph0" class="graph" transform="scale(1 1) rotate(0) translate(4 24)">
<title>match::getCardsFromDeck</title>
<!-- Node1 -->
<g id="node1" class="node"><title>Node1</title>
<polygon fill="#bfbfbf" stroke="black" points="0.5,-0.5 0.5,-19.5 135.5,-19.5 135.5,-0.5 0.5,-0.5"/>
<text text-anchor="middle" x="68" y="-7.5" font-family="Helvetica,sans-Serif" font-size="10.00">match::getCardsFromDeck</text>
</g>
<!-- Node2 -->
<g id="node2" class="node"><title>Node2</title>
<g id="a_node2"><a xlink:href="../../db/d43/classmatch.html#a46982e55a04f6a60fdd8057b5acbf64f" target="_top" xlink:title="match::buildMasterDeck Wählt alle verfügbaren Decks aus um ihre Karten einzusammeln. ">
<polygon fill="none" stroke="black" points="172.5,-0.5 172.5,-19.5 295.5,-19.5 295.5,-0.5 172.5,-0.5"/>
<text text-anchor="middle" x="234" y="-7.5" font-family="Helvetica,sans-Serif" font-size="10.00">match::buildMasterDeck</text>
</a>
</g>
</g>
<!-- Node1&#45;&gt;Node2 -->
<g id="edge1" class="edge"><title>Node1&#45;&gt;Node2</title>
<path fill="none" stroke="midnightblue" d="M145.753,-10C154.703,-10 163.738,-10 172.428,-10"/>
<polygon fill="midnightblue" stroke="midnightblue" points="145.705,-6.5001 135.705,-10 145.705,-13.5001 145.705,-6.5001"/>
</g>
<!-- Node3 -->
<g id="node3" class="node"><title>Node3</title>
<g id="a_node3"><a xlink:href="../../db/d43/classmatch.html#a324c10417644283bb7101859392ed252" target="_top" xlink:title="match::match Erstellt das Masterdeck aus bestehenden Decks und verteilt die Karten an alle Spieler...">
<polygon fill="none" stroke="black" points="332.5,-0.5 332.5,-19.5 409.5,-19.5 409.5,-0.5 332.5,-0.5"/>
<text text-anchor="middle" x="371" y="-7.5" font-family="Helvetica,sans-Serif" font-size="10.00">match::match</text>
</a>
</g>
</g>
<!-- Node2&#45;&gt;Node3 -->
<g id="edge2" class="edge"><title>Node2&#45;&gt;Node3</title>
<path fill="none" stroke="midnightblue" d="M306.039,-10C315.119,-10 324.114,-10 332.363,-10"/>
<polygon fill="midnightblue" stroke="midnightblue" points="305.786,-6.5001 295.786,-10 305.786,-13.5001 305.786,-6.5001"/>
</g>
</g>
</svg>
