<?xml version="1.0" encoding="UTF-8" standalone="no"?>
<!DOCTYPE svg PUBLIC "-//W3C//DTD SVG 1.1//EN"
 "http://www.w3.org/Graphics/SVG/1.1/DTD/svg11.dtd">
<!-- Generated by graphviz version 2.36.0 (20140111.2315)
 -->
<!-- Title: match::match Pages: 1 -->
<svg width="570pt" height="142pt"
 viewBox="0.00 0.00 570.00 142.00" xmlns="http://www.w3.org/2000/svg" xmlns:xlink="http://www.w3.org/1999/xlink">
<g id="graph0" class="graph" transform="scale(1 1) rotate(0) translate(4 138)">
<title>match::match</title>
<!-- Node1 -->
<g id="node1" class="node"><title>Node1</title>
<polygon fill="#bfbfbf" stroke="black" points="0.5,-38.5 0.5,-57.5 77.5,-57.5 77.5,-38.5 0.5,-38.5"/>
<text text-anchor="middle" x="39" y="-45.5" font-family="Helvetica,sans-Serif" font-size="10.00">match::match</text>
</g>
<!-- Node2 -->
<g id="node2" class="node"><title>Node2</title>
<g id="a_node2"><a xlink:href="../../db/d43/classmatch.html#a46982e55a04f6a60fdd8057b5acbf64f" target="_top" xlink:title="match::buildMasterDeck Wählt alle verfügbaren Decks aus um ihre Karten einzusammeln. ">
<polygon fill="none" stroke="black" points="114.5,-76.5 114.5,-95.5 237.5,-95.5 237.5,-76.5 114.5,-76.5"/>
<text text-anchor="middle" x="176" y="-83.5" font-family="Helvetica,sans-Serif" font-size="10.00">match::buildMasterDeck</text>
</a>
</g>
</g>
<!-- Node1&#45;&gt;Node2 -->
<g id="edge1" class="edge"><title>Node1&#45;&gt;Node2</title>
<path fill="none" stroke="midnightblue" d="M74.0662,-57.589C91.4135,-62.4719 112.702,-68.4643 131.249,-73.685"/>
<polygon fill="midnightblue" stroke="midnightblue" points="130.37,-77.0735 140.945,-76.4141 132.267,-70.3354 130.37,-77.0735"/>
</g>
<!-- Node7 -->
<g id="node7" class="node"><title>Node7</title>
<g id="a_node7"><a xlink:href="../../db/d43/classmatch.html#ab4c417d094231254db1d0fb16788d9d1" target="_top" xlink:title="match::dealCards">
<polygon fill="none" stroke="black" points="129,-38.5 129,-57.5 223,-57.5 223,-38.5 129,-38.5"/>
<text text-anchor="middle" x="176" y="-45.5" font-family="Helvetica,sans-Serif" font-size="10.00">match::dealCards</text>
</a>
</g>
</g>
<!-- Node1&#45;&gt;Node7 -->
<g id="edge6" class="edge"><title>Node1&#45;&gt;Node7</title>
<path fill="none" stroke="midnightblue" d="M77.605,-48C90.2879,-48 104.735,-48 118.548,-48"/>
<polygon fill="midnightblue" stroke="midnightblue" points="118.948,-51.5001 128.948,-48 118.948,-44.5001 118.948,-51.5001"/>
</g>
<!-- Node8 -->
<g id="node8" class="node"><title>Node8</title>
<g id="a_node8"><a xlink:href="../../dc/d2e/classplayer.html#a3dc68b6bb16cc8cb5d2a8bdbe9979bda" target="_top" xlink:title="printCards ">
<polygon fill="none" stroke="black" points="129,-0.5 129,-19.5 223,-19.5 223,-0.5 129,-0.5"/>
<text text-anchor="middle" x="176" y="-7.5" font-family="Helvetica,sans-Serif" font-size="10.00">player::printCards</text>
</a>
</g>
</g>
<!-- Node1&#45;&gt;Node8 -->
<g id="edge7" class="edge"><title>Node1&#45;&gt;Node8</title>
<path fill="none" stroke="midnightblue" d="M74.0662,-38.411C91.4135,-33.5281 112.702,-27.5357 131.249,-22.315"/>
<polygon fill="midnightblue" stroke="midnightblue" points="132.267,-25.6646 140.945,-19.5859 130.37,-18.9265 132.267,-25.6646"/>
</g>
<!-- Node3 -->
<g id="node3" class="node"><title>Node3</title>
<g id="a_node3"><a xlink:href="../../db/d43/classmatch.html#a690fc86b621fdd5367a35376fc85130a" target="_top" xlink:title="match::getCardsFromDeck Verschiebt die Karten von tDeck in cards. ">
<polygon fill="none" stroke="black" points="274.5,-76.5 274.5,-95.5 409.5,-95.5 409.5,-76.5 274.5,-76.5"/>
<text text-anchor="middle" x="342" y="-83.5" font-family="Helvetica,sans-Serif" font-size="10.00">match::getCardsFromDeck</text>
</a>
</g>
</g>
<!-- Node2&#45;&gt;Node3 -->
<g id="edge2" class="edge"><title>Node2&#45;&gt;Node3</title>
<path fill="none" stroke="midnightblue" d="M237.602,-86C246.286,-86 255.315,-86 264.26,-86"/>
<polygon fill="midnightblue" stroke="midnightblue" points="264.301,-89.5001 274.301,-86 264.301,-82.5001 264.301,-89.5001"/>
</g>
<!-- Node4 -->
<g id="node4" class="node"><title>Node4</title>
<g id="a_node4"><a xlink:href="../../d7/dab/classdeck.html#a26cfcf4196728cde8b904dbcf63bc815" target="_top" xlink:title="deck::getCards">
<polygon fill="none" stroke="black" points="462.5,-114.5 462.5,-133.5 545.5,-133.5 545.5,-114.5 462.5,-114.5"/>
<text text-anchor="middle" x="504" y="-121.5" font-family="Helvetica,sans-Serif" font-size="10.00">deck::getCards</text>
</a>
</g>
</g>
<!-- Node3&#45;&gt;Node4 -->
<g id="edge3" class="edge"><title>Node3&#45;&gt;Node4</title>
<path fill="none" stroke="midnightblue" d="M383.375,-95.589C404.488,-100.604 430.529,-106.788 452.917,-112.105"/>
<polygon fill="midnightblue" stroke="midnightblue" points="452.377,-115.574 462.916,-114.48 453.995,-108.764 452.377,-115.574"/>
</g>
<!-- Node5 -->
<g id="node5" class="node"><title>Node5</title>
<g id="a_node5"><a xlink:href="../../d7/dab/classdeck.html#a3a190c2877d3822b7379d6a9fa2c050b" target="_top" xlink:title="deck::isEmpty">
<polygon fill="none" stroke="black" points="464,-76.5 464,-95.5 544,-95.5 544,-76.5 464,-76.5"/>
<text text-anchor="middle" x="504" y="-83.5" font-family="Helvetica,sans-Serif" font-size="10.00">deck::isEmpty</text>
</a>
</g>
</g>
<!-- Node3&#45;&gt;Node5 -->
<g id="edge4" class="edge"><title>Node3&#45;&gt;Node5</title>
<path fill="none" stroke="midnightblue" d="M409.927,-86C424.53,-86 439.731,-86 453.511,-86"/>
<polygon fill="midnightblue" stroke="midnightblue" points="453.738,-89.5001 463.738,-86 453.738,-82.5001 453.738,-89.5001"/>
</g>
<!-- Node6 -->
<g id="node6" class="node"><title>Node6</title>
<g id="a_node6"><a xlink:href="../../d7/dab/classdeck.html#a8e33dbdafe69c55d968526d9543245ec" target="_top" xlink:title="deck::getRandomCard zieht eine zufällige Karte auf dem Kartendeck und entfernt diese. ">
<polygon fill="none" stroke="black" points="446.5,-38.5 446.5,-57.5 561.5,-57.5 561.5,-38.5 446.5,-38.5"/>
<text text-anchor="middle" x="504" y="-45.5" font-family="Helvetica,sans-Serif" font-size="10.00">deck::getRandomCard</text>
</a>
</g>
</g>
<!-- Node3&#45;&gt;Node6 -->
<g id="edge5" class="edge"><title>Node3&#45;&gt;Node6</title>
<path fill="none" stroke="midnightblue" d="M383.375,-76.411C404.488,-71.3965 430.529,-65.2119 452.917,-59.8947"/>
<polygon fill="midnightblue" stroke="midnightblue" points="453.995,-63.2361 462.916,-57.5201 452.377,-56.4256 453.995,-63.2361"/>
</g>
</g>
</svg>
