<?xml version="1.0" encoding="UTF-8" standalone="no"?>
<!DOCTYPE svg PUBLIC "-//W3C//DTD SVG 1.1//EN"
 "http://www.w3.org/Graphics/SVG/1.1/DTD/svg11.dtd">
<!-- Generated by graphviz version 2.36.0 (20140111.2315)
 -->
<!-- Title: match::buildMasterDeck Pages: 1 -->
<svg width="456pt" height="104pt"
 viewBox="0.00 0.00 456.00 104.00" xmlns="http://www.w3.org/2000/svg" xmlns:xlink="http://www.w3.org/1999/xlink">
<g id="graph0" class="graph" transform="scale(1 1) rotate(0) translate(4 100)">
<title>match::buildMasterDeck</title>
<!-- Node1 -->
<g id="node1" class="node"><title>Node1</title>
<polygon fill="#bfbfbf" stroke="black" points="0.5,-38.5 0.5,-57.5 123.5,-57.5 123.5,-38.5 0.5,-38.5"/>
<text text-anchor="middle" x="62" y="-45.5" font-family="Helvetica,sans-Serif" font-size="10.00">match::buildMasterDeck</text>
</g>
<!-- Node2 -->
<g id="node2" class="node"><title>Node2</title>
<g id="a_node2"><a xlink:href="../../db/d43/classmatch.html#a690fc86b621fdd5367a35376fc85130a" target="_top" xlink:title="match::getCardsFromDeck Verschiebt die Karten von tDeck in cards. ">
<polygon fill="none" stroke="black" points="160.5,-38.5 160.5,-57.5 295.5,-57.5 295.5,-38.5 160.5,-38.5"/>
<text text-anchor="middle" x="228" y="-45.5" font-family="Helvetica,sans-Serif" font-size="10.00">match::getCardsFromDeck</text>
</a>
</g>
</g>
<!-- Node1&#45;&gt;Node2 -->
<g id="edge1" class="edge"><title>Node1&#45;&gt;Node2</title>
<path fill="none" stroke="midnightblue" d="M123.602,-48C132.286,-48 141.315,-48 150.26,-48"/>
<polygon fill="midnightblue" stroke="midnightblue" points="150.301,-51.5001 160.301,-48 150.301,-44.5001 150.301,-51.5001"/>
</g>
<!-- Node3 -->
<g id="node3" class="node"><title>Node3</title>
<g id="a_node3"><a xlink:href="../../d7/dab/classdeck.html#a26cfcf4196728cde8b904dbcf63bc815" target="_top" xlink:title="deck::getCards">
<polygon fill="none" stroke="black" points="348.5,-76.5 348.5,-95.5 431.5,-95.5 431.5,-76.5 348.5,-76.5"/>
<text text-anchor="middle" x="390" y="-83.5" font-family="Helvetica,sans-Serif" font-size="10.00">deck::getCards</text>
</a>
</g>
</g>
<!-- Node2&#45;&gt;Node3 -->
<g id="edge2" class="edge"><title>Node2&#45;&gt;Node3</title>
<path fill="none" stroke="midnightblue" d="M269.375,-57.589C290.488,-62.6035 316.529,-68.7881 338.917,-74.1053"/>
<polygon fill="midnightblue" stroke="midnightblue" points="338.377,-77.5744 348.916,-76.4799 339.995,-70.7639 338.377,-77.5744"/>
</g>
<!-- Node4 -->
<g id="node4" class="node"><title>Node4</title>
<g id="a_node4"><a xlink:href="../../d7/dab/classdeck.html#a3a190c2877d3822b7379d6a9fa2c050b" target="_top" xlink:title="deck::isEmpty">
<polygon fill="none" stroke="black" points="350,-38.5 350,-57.5 430,-57.5 430,-38.5 350,-38.5"/>
<text text-anchor="middle" x="390" y="-45.5" font-family="Helvetica,sans-Serif" font-size="10.00">deck::isEmpty</text>
</a>
</g>
</g>
<!-- Node2&#45;&gt;Node4 -->
<g id="edge3" class="edge"><title>Node2&#45;&gt;Node4</title>
<path fill="none" stroke="midnightblue" d="M295.927,-48C310.53,-48 325.731,-48 339.511,-48"/>
<polygon fill="midnightblue" stroke="midnightblue" points="339.738,-51.5001 349.738,-48 339.738,-44.5001 339.738,-51.5001"/>
</g>
<!-- Node5 -->
<g id="node5" class="node"><title>Node5</title>
<g id="a_node5"><a xlink:href="../../d7/dab/classdeck.html#a8e33dbdafe69c55d968526d9543245ec" target="_top" xlink:title="deck::getRandomCard zieht eine zufällige Karte auf dem Kartendeck und entfernt diese. ">
<polygon fill="none" stroke="black" points="332.5,-0.5 332.5,-19.5 447.5,-19.5 447.5,-0.5 332.5,-0.5"/>
<text text-anchor="middle" x="390" y="-7.5" font-family="Helvetica,sans-Serif" font-size="10.00">deck::getRandomCard</text>
</a>
</g>
</g>
<!-- Node2&#45;&gt;Node5 -->
<g id="edge4" class="edge"><title>Node2&#45;&gt;Node5</title>
<path fill="none" stroke="midnightblue" d="M269.375,-38.411C290.488,-33.3965 316.529,-27.2119 338.917,-21.8947"/>
<polygon fill="midnightblue" stroke="midnightblue" points="339.995,-25.2361 348.916,-19.5201 338.377,-18.4256 339.995,-25.2361"/>
</g>
</g>
</svg>
