<?xml version="1.0" encoding="UTF-8" standalone="no"?>
<!DOCTYPE svg PUBLIC "-//W3C//DTD SVG 1.1//EN"
 "http://www.w3.org/Graphics/SVG/1.1/DTD/svg11.dtd">
<!-- Generated by graphviz version 2.36.0 (20140111.2315)
 -->
<!-- Title: deck::getRandomCard Pages: 1 -->
<svg width="570pt" height="28pt"
 viewBox="0.00 0.00 570.00 28.00" xmlns="http://www.w3.org/2000/svg" xmlns:xlink="http://www.w3.org/1999/xlink">
<g id="graph0" class="graph" transform="scale(1 1) rotate(0) translate(4 24)">
<title>deck::getRandomCard</title>
<!-- Node1 -->
<g id="node1" class="node"><title>Node1</title>
<polygon fill="#bfbfbf" stroke="black" points="0.5,-0.5 0.5,-19.5 115.5,-19.5 115.5,-0.5 0.5,-0.5"/>
<text text-anchor="middle" x="58" y="-7.5" font-family="Helvetica,sans-Serif" font-size="10.00">deck::getRandomCard</text>
</g>
<!-- Node2 -->
<g id="node2" class="node"><title>Node2</title>
<g id="a_node2"><a xlink:href="../../db/d43/classmatch.html#a690fc86b621fdd5367a35376fc85130a" target="_top" xlink:title="match::getCardsFromDeck Verschiebt die Karten von tDeck in cards. ">
<polygon fill="none" stroke="black" points="152.5,-0.5 152.5,-19.5 287.5,-19.5 287.5,-0.5 152.5,-0.5"/>
<text text-anchor="middle" x="220" y="-7.5" font-family="Helvetica,sans-Serif" font-size="10.00">match::getCardsFromDeck</text>
</a>
</g>
</g>
<!-- Node1&#45;&gt;Node2 -->
<g id="edge1" class="edge"><title>Node1&#45;&gt;Node2</title>
<path fill="none" stroke="midnightblue" d="M126.014,-10C134.77,-10 143.738,-10 152.485,-10"/>
<polygon fill="midnightblue" stroke="midnightblue" points="125.861,-6.5001 115.861,-10 125.86,-13.5001 125.861,-6.5001"/>
</g>
<!-- Node3 -->
<g id="node3" class="node"><title>Node3</title>
<g id="a_node3"><a xlink:href="../../db/d43/classmatch.html#a46982e55a04f6a60fdd8057b5acbf64f" target="_top" xlink:title="match::buildMasterDeck Wählt alle verfügbaren Decks aus um ihre Karten einzusammeln. ">
<polygon fill="none" stroke="black" points="324.5,-0.5 324.5,-19.5 447.5,-19.5 447.5,-0.5 324.5,-0.5"/>
<text text-anchor="middle" x="386" y="-7.5" font-family="Helvetica,sans-Serif" font-size="10.00">match::buildMasterDeck</text>
</a>
</g>
</g>
<!-- Node2&#45;&gt;Node3 -->
<g id="edge2" class="edge"><title>Node2&#45;&gt;Node3</title>
<path fill="none" stroke="midnightblue" d="M297.753,-10C306.703,-10 315.738,-10 324.428,-10"/>
<polygon fill="midnightblue" stroke="midnightblue" points="297.705,-6.5001 287.705,-10 297.705,-13.5001 297.705,-6.5001"/>
</g>
<!-- Node4 -->
<g id="node4" class="node"><title>Node4</title>
<g id="a_node4"><a xlink:href="../../db/d43/classmatch.html#a324c10417644283bb7101859392ed252" target="_top" xlink:title="match::match Erstellt das Masterdeck aus bestehenden Decks und verteilt die Karten an alle Spieler...">
<polygon fill="none" stroke="black" points="484.5,-0.5 484.5,-19.5 561.5,-19.5 561.5,-0.5 484.5,-0.5"/>
<text text-anchor="middle" x="523" y="-7.5" font-family="Helvetica,sans-Serif" font-size="10.00">match::match</text>
</a>
</g>
</g>
<!-- Node3&#45;&gt;Node4 -->
<g id="edge3" class="edge"><title>Node3&#45;&gt;Node4</title>
<path fill="none" stroke="midnightblue" d="M458.039,-10C467.119,-10 476.114,-10 484.363,-10"/>
<polygon fill="midnightblue" stroke="midnightblue" points="457.786,-6.5001 447.786,-10 457.786,-13.5001 457.786,-6.5001"/>
</g>
</g>
</svg>
