<?xml version="1.0" encoding="UTF-8" standalone="no"?>
<!DOCTYPE svg PUBLIC "-//W3C//DTD SVG 1.1//EN"
 "http://www.w3.org/Graphics/SVG/1.1/DTD/svg11.dtd">
<!-- Generated by graphviz version 2.36.0 (20140111.2315)
 -->
<!-- Title: deck::getCards Pages: 1 -->
<svg width="538pt" height="28pt"
 viewBox="0.00 0.00 538.00 28.00" xmlns="http://www.w3.org/2000/svg" xmlns:xlink="http://www.w3.org/1999/xlink">
<g id="graph0" class="graph" transform="scale(1 1) rotate(0) translate(4 24)">
<title>deck::getCards</title>
<!-- Node1 -->
<g id="node1" class="node"><title>Node1</title>
<polygon fill="#bfbfbf" stroke="black" points="0.5,-0.5 0.5,-19.5 83.5,-19.5 83.5,-0.5 0.5,-0.5"/>
<text text-anchor="middle" x="42" y="-7.5" font-family="Helvetica,sans-Serif" font-size="10.00">deck::getCards</text>
</g>
<!-- Node2 -->
<g id="node2" class="node"><title>Node2</title>
<g id="a_node2"><a xlink:href="../../db/d43/classmatch.html#a690fc86b621fdd5367a35376fc85130a" target="_top" xlink:title="match::getCardsFromDeck Verschiebt die Karten von tDeck in cards. ">
<polygon fill="none" stroke="black" points="120.5,-0.5 120.5,-19.5 255.5,-19.5 255.5,-0.5 120.5,-0.5"/>
<text text-anchor="middle" x="188" y="-7.5" font-family="Helvetica,sans-Serif" font-size="10.00">match::getCardsFromDeck</text>
</a>
</g>
</g>
<!-- Node1&#45;&gt;Node2 -->
<g id="edge1" class="edge"><title>Node1&#45;&gt;Node2</title>
<path fill="none" stroke="midnightblue" d="M94.0443,-10C102.583,-10 111.552,-10 120.411,-10"/>
<polygon fill="midnightblue" stroke="midnightblue" points="93.8795,-6.5001 83.8794,-10 93.8794,-13.5001 93.8795,-6.5001"/>
</g>
<!-- Node3 -->
<g id="node3" class="node"><title>Node3</title>
<g id="a_node3"><a xlink:href="../../db/d43/classmatch.html#a46982e55a04f6a60fdd8057b5acbf64f" target="_top" xlink:title="match::buildMasterDeck Wählt alle verfügbaren Decks aus um ihre Karten einzusammeln. ">
<polygon fill="none" stroke="black" points="292.5,-0.5 292.5,-19.5 415.5,-19.5 415.5,-0.5 292.5,-0.5"/>
<text text-anchor="middle" x="354" y="-7.5" font-family="Helvetica,sans-Serif" font-size="10.00">match::buildMasterDeck</text>
</a>
</g>
</g>
<!-- Node2&#45;&gt;Node3 -->
<g id="edge2" class="edge"><title>Node2&#45;&gt;Node3</title>
<path fill="none" stroke="midnightblue" d="M265.753,-10C274.703,-10 283.738,-10 292.428,-10"/>
<polygon fill="midnightblue" stroke="midnightblue" points="265.705,-6.5001 255.705,-10 265.705,-13.5001 265.705,-6.5001"/>
</g>
<!-- Node4 -->
<g id="node4" class="node"><title>Node4</title>
<g id="a_node4"><a xlink:href="../../db/d43/classmatch.html#a324c10417644283bb7101859392ed252" target="_top" xlink:title="match::match Erstellt das Masterdeck aus bestehenden Decks und verteilt die Karten an alle Spieler...">
<polygon fill="none" stroke="black" points="452.5,-0.5 452.5,-19.5 529.5,-19.5 529.5,-0.5 452.5,-0.5"/>
<text text-anchor="middle" x="491" y="-7.5" font-family="Helvetica,sans-Serif" font-size="10.00">match::match</text>
</a>
</g>
</g>
<!-- Node3&#45;&gt;Node4 -->
<g id="edge3" class="edge"><title>Node3&#45;&gt;Node4</title>
<path fill="none" stroke="midnightblue" d="M426.039,-10C435.119,-10 444.114,-10 452.363,-10"/>
<polygon fill="midnightblue" stroke="midnightblue" points="425.786,-6.5001 415.786,-10 425.786,-13.5001 425.786,-6.5001"/>
</g>
</g>
</svg>
