<?xml version="1.0" encoding="UTF-8" standalone="no"?>
<!DOCTYPE svg PUBLIC "-//W3C//DTD SVG 1.1//EN"
 "http://www.w3.org/Graphics/SVG/1.1/DTD/svg11.dtd">
<!-- Generated by graphviz version 2.36.0 (20140111.2315)
 -->
<!-- Title: set.cpp Pages: 1 -->
<svg width="244pt" height="140pt"
 viewBox="0.00 0.00 244.00 140.00" xmlns="http://www.w3.org/2000/svg" xmlns:xlink="http://www.w3.org/1999/xlink">
<g id="graph0" class="graph" transform="scale(1 1) rotate(0) translate(4 136)">
<title>set.cpp</title>
<!-- Node1 -->
<g id="node1" class="node"><title>Node1</title>
<polygon fill="#bfbfbf" stroke="black" points="95.5,-112.5 95.5,-131.5 144.5,-131.5 144.5,-112.5 95.5,-112.5"/>
<text text-anchor="middle" x="120" y="-119.5" font-family="Helvetica,sans-Serif" font-size="10.00">set.cpp</text>
</g>
<!-- Node2 -->
<g id="node2" class="node"><title>Node2</title>
<g id="a_node2"><a xlink:href="../../d4/d13/set_8h.html" target="_top" xlink:title="set.h">
<polygon fill="none" stroke="black" points="101,-56.5 101,-75.5 139,-75.5 139,-56.5 101,-56.5"/>
<text text-anchor="middle" x="120" y="-63.5" font-family="Helvetica,sans-Serif" font-size="10.00">set.h</text>
</a>
</g>
</g>
<!-- Node1&#45;&gt;Node2 -->
<g id="edge1" class="edge"><title>Node1&#45;&gt;Node2</title>
<path fill="none" stroke="midnightblue" d="M120,-112.083C120,-105.006 120,-94.8611 120,-85.9865"/>
<polygon fill="midnightblue" stroke="midnightblue" points="123.5,-85.751 120,-75.7511 116.5,-85.7511 123.5,-85.751"/>
</g>
<!-- Node3 -->
<g id="node3" class="node"><title>Node3</title>
<polygon fill="none" stroke="#bfbfbf" points="0,-0.5 0,-19.5 46,-19.5 46,-0.5 0,-0.5"/>
<text text-anchor="middle" x="23" y="-7.5" font-family="Helvetica,sans-Serif" font-size="10.00">stdio.h</text>
</g>
<!-- Node2&#45;&gt;Node3 -->
<g id="edge2" class="edge"><title>Node2&#45;&gt;Node3</title>
<path fill="none" stroke="midnightblue" d="M104.415,-56.324C89.0009,-47.7428 65.1878,-34.486 47.2903,-24.5224"/>
<polygon fill="midnightblue" stroke="midnightblue" points="48.9858,-21.4606 38.5461,-19.6545 45.5809,-27.5767 48.9858,-21.4606"/>
</g>
<!-- Node4 -->
<g id="node4" class="node"><title>Node4</title>
<polygon fill="none" stroke="#bfbfbf" points="64,-0.5 64,-19.5 112,-19.5 112,-0.5 64,-0.5"/>
<text text-anchor="middle" x="88" y="-7.5" font-family="Helvetica,sans-Serif" font-size="10.00">stdlib.h</text>
</g>
<!-- Node2&#45;&gt;Node4 -->
<g id="edge3" class="edge"><title>Node2&#45;&gt;Node4</title>
<path fill="none" stroke="midnightblue" d="M114.716,-56.083C110.289,-48.6127 103.837,-37.7244 98.3821,-28.5199"/>
<polygon fill="midnightblue" stroke="midnightblue" points="101.295,-26.5697 93.1858,-19.7511 95.2729,-30.1383 101.295,-26.5697"/>
</g>
<!-- Node5 -->
<g id="node5" class="node"><title>Node5</title>
<polygon fill="none" stroke="#bfbfbf" points="130,-0.5 130,-19.5 174,-19.5 174,-0.5 130,-0.5"/>
<text text-anchor="middle" x="152" y="-7.5" font-family="Helvetica,sans-Serif" font-size="10.00">time.h</text>
</g>
<!-- Node2&#45;&gt;Node5 -->
<g id="edge4" class="edge"><title>Node2&#45;&gt;Node5</title>
<path fill="none" stroke="midnightblue" d="M125.284,-56.083C129.711,-48.6127 136.163,-37.7244 141.618,-28.5199"/>
<polygon fill="midnightblue" stroke="midnightblue" points="144.727,-30.1383 146.814,-19.7511 138.705,-26.5697 144.727,-30.1383"/>
</g>
<!-- Node6 -->
<g id="node6" class="node"><title>Node6</title>
<polygon fill="none" stroke="#bfbfbf" points="192,-0.5 192,-19.5 236,-19.5 236,-0.5 192,-0.5"/>
<text text-anchor="middle" x="214" y="-7.5" font-family="Helvetica,sans-Serif" font-size="10.00">vector</text>
</g>
<!-- Node2&#45;&gt;Node6 -->
<g id="edge5" class="edge"><title>Node2&#45;&gt;Node6</title>
<path fill="none" stroke="midnightblue" d="M135.103,-56.324C149.903,-47.8215 172.694,-34.7288 189.982,-24.7975"/>
<polygon fill="midnightblue" stroke="midnightblue" points="192.007,-27.6707 198.935,-19.6545 188.52,-21.6009 192.007,-27.6707"/>
</g>
</g>
</svg>
