<?xml version="1.0" encoding="UTF-8" standalone="no"?>
<!DOCTYPE svg PUBLIC "-//W3C//DTD SVG 1.1//EN"
 "http://www.w3.org/Graphics/SVG/1.1/DTD/svg11.dtd">
<!-- Generated by graphviz version 2.36.0 (20140111.2315)
 -->
<!-- Title: match.cpp Pages: 1 -->
<svg width="244pt" height="252pt"
 viewBox="0.00 0.00 244.00 252.00" xmlns="http://www.w3.org/2000/svg" xmlns:xlink="http://www.w3.org/1999/xlink">
<g id="graph0" class="graph" transform="scale(1 1) rotate(0) translate(4 248)">
<title>match.cpp</title>
<!-- Node1 -->
<g id="node1" class="node"><title>Node1</title>
<polygon fill="#bfbfbf" stroke="black" points="51,-224.5 51,-243.5 113,-243.5 113,-224.5 51,-224.5"/>
<text text-anchor="middle" x="82" y="-231.5" font-family="Helvetica,sans-Serif" font-size="10.00">match.cpp</text>
</g>
<!-- Node2 -->
<g id="node2" class="node"><title>Node2</title>
<g id="a_node2"><a xlink:href="../../d1/d61/match_8h.html" target="_top" xlink:title="match.h">
<polygon fill="none" stroke="black" points="56,-168.5 56,-187.5 108,-187.5 108,-168.5 56,-168.5"/>
<text text-anchor="middle" x="82" y="-175.5" font-family="Helvetica,sans-Serif" font-size="10.00">match.h</text>
</a>
</g>
</g>
<!-- Node1&#45;&gt;Node2 -->
<g id="edge1" class="edge"><title>Node1&#45;&gt;Node2</title>
<path fill="none" stroke="midnightblue" d="M82,-224.083C82,-217.006 82,-206.861 82,-197.986"/>
<polygon fill="midnightblue" stroke="midnightblue" points="85.5001,-197.751 82,-187.751 78.5001,-197.751 85.5001,-197.751"/>
</g>
<!-- Node3 -->
<g id="node3" class="node"><title>Node3</title>
<polygon fill="none" stroke="#bfbfbf" points="0,-0.5 0,-19.5 44,-19.5 44,-0.5 0,-0.5"/>
<text text-anchor="middle" x="22" y="-7.5" font-family="Helvetica,sans-Serif" font-size="10.00">vector</text>
</g>
<!-- Node2&#45;&gt;Node3 -->
<g id="edge2" class="edge"><title>Node2&#45;&gt;Node3</title>
<path fill="none" stroke="midnightblue" d="M73.5487,-168.447C65.5724,-159.906 53.8443,-146.06 47,-132 30.6282,-98.3668 24.9606,-54.4091 23.0107,-29.7988"/>
<polygon fill="midnightblue" stroke="midnightblue" points="26.4937,-29.4248 22.3364,-19.6797 19.5092,-29.8904 26.4937,-29.4248"/>
</g>
<!-- Node4 -->
<g id="node4" class="node"><title>Node4</title>
<g id="a_node4"><a xlink:href="../../d4/d13/set_8h.html" target="_top" xlink:title="set.h">
<polygon fill="none" stroke="black" points="127,-56.5 127,-75.5 165,-75.5 165,-56.5 127,-56.5"/>
<text text-anchor="middle" x="146" y="-63.5" font-family="Helvetica,sans-Serif" font-size="10.00">set.h</text>
</a>
</g>
</g>
<!-- Node2&#45;&gt;Node4 -->
<g id="edge3" class="edge"><title>Node2&#45;&gt;Node4</title>
<path fill="none" stroke="midnightblue" d="M89.3612,-168.432C96.6804,-159.658 107.949,-145.44 116,-132 125.072,-116.857 133.312,-98.5089 138.85,-85.1735"/>
<polygon fill="midnightblue" stroke="midnightblue" points="142.173,-86.2933 142.678,-75.7105 135.684,-83.6688 142.173,-86.2933"/>
</g>
<!-- Node8 -->
<g id="node8" class="node"><title>Node8</title>
<g id="a_node8"><a xlink:href="../../d3/d62/player_8h.html" target="_top" xlink:title="Datie zur Verwaltung der Klasse(n) player. ">
<polygon fill="none" stroke="black" points="56.5,-112.5 56.5,-131.5 107.5,-131.5 107.5,-112.5 56.5,-112.5"/>
<text text-anchor="middle" x="82" y="-119.5" font-family="Helvetica,sans-Serif" font-size="10.00">player.h</text>
</a>
</g>
</g>
<!-- Node2&#45;&gt;Node8 -->
<g id="edge8" class="edge"><title>Node2&#45;&gt;Node8</title>
<path fill="none" stroke="midnightblue" d="M82,-168.083C82,-161.006 82,-150.861 82,-141.986"/>
<polygon fill="midnightblue" stroke="midnightblue" points="85.5001,-141.751 82,-131.751 78.5001,-141.751 85.5001,-141.751"/>
</g>
<!-- Node4&#45;&gt;Node3 -->
<g id="edge7" class="edge"><title>Node4&#45;&gt;Node3</title>
<path fill="none" stroke="midnightblue" d="M126.897,-56.6808C106.686,-47.8794 74.5466,-33.8832 51.1646,-23.7007"/>
<polygon fill="midnightblue" stroke="midnightblue" points="52.3061,-20.3804 41.7403,-19.5966 49.5112,-26.7982 52.3061,-20.3804"/>
</g>
<!-- Node5 -->
<g id="node5" class="node"><title>Node5</title>
<polygon fill="none" stroke="#bfbfbf" points="62,-0.5 62,-19.5 108,-19.5 108,-0.5 62,-0.5"/>
<text text-anchor="middle" x="85" y="-7.5" font-family="Helvetica,sans-Serif" font-size="10.00">stdio.h</text>
</g>
<!-- Node4&#45;&gt;Node5 -->
<g id="edge4" class="edge"><title>Node4&#45;&gt;Node5</title>
<path fill="none" stroke="midnightblue" d="M136.199,-56.324C127.182,-48.3414 113.594,-36.3128 102.682,-26.6529"/>
<polygon fill="midnightblue" stroke="midnightblue" points="104.787,-23.8416 94.979,-19.8339 100.147,-29.083 104.787,-23.8416"/>
</g>
<!-- Node6 -->
<g id="node6" class="node"><title>Node6</title>
<polygon fill="none" stroke="#bfbfbf" points="126,-0.5 126,-19.5 174,-19.5 174,-0.5 126,-0.5"/>
<text text-anchor="middle" x="150" y="-7.5" font-family="Helvetica,sans-Serif" font-size="10.00">stdlib.h</text>
</g>
<!-- Node4&#45;&gt;Node6 -->
<g id="edge5" class="edge"><title>Node4&#45;&gt;Node6</title>
<path fill="none" stroke="midnightblue" d="M146.661,-56.083C147.185,-49.0059 147.936,-38.8611 148.594,-29.9865"/>
<polygon fill="midnightblue" stroke="midnightblue" points="152.103,-29.9823 149.352,-19.7511 145.123,-29.4652 152.103,-29.9823"/>
</g>
<!-- Node7 -->
<g id="node7" class="node"><title>Node7</title>
<polygon fill="none" stroke="#bfbfbf" points="192,-0.5 192,-19.5 236,-19.5 236,-0.5 192,-0.5"/>
<text text-anchor="middle" x="214" y="-7.5" font-family="Helvetica,sans-Serif" font-size="10.00">time.h</text>
</g>
<!-- Node4&#45;&gt;Node7 -->
<g id="edge6" class="edge"><title>Node4&#45;&gt;Node7</title>
<path fill="none" stroke="midnightblue" d="M156.925,-56.324C167.175,-48.1849 182.721,-35.8395 195.001,-26.0874"/>
<polygon fill="midnightblue" stroke="midnightblue" points="197.221,-28.7937 202.876,-19.8339 192.868,-23.3119 197.221,-28.7937"/>
</g>
<!-- Node8&#45;&gt;Node3 -->
<g id="edge9" class="edge"><title>Node8&#45;&gt;Node3</title>
<path fill="none" stroke="midnightblue" d="M73.6305,-112.316C65.666,-103.679 53.7751,-89.7634 46,-76 37.6796,-61.2714 31.2583,-43.1104 27.1603,-29.7324"/>
<polygon fill="midnightblue" stroke="midnightblue" points="30.4256,-28.426 24.2738,-19.8001 23.7037,-30.3796 30.4256,-28.426"/>
</g>
<!-- Node8&#45;&gt;Node4 -->
<g id="edge11" class="edge"><title>Node8&#45;&gt;Node4</title>
<path fill="none" stroke="midnightblue" d="M92.2827,-112.324C101.836,-104.263 116.28,-92.0765 127.784,-82.3695"/>
<polygon fill="midnightblue" stroke="midnightblue" points="130.144,-84.9577 135.53,-75.8339 125.63,-79.6076 130.144,-84.9577"/>
</g>
<!-- Node9 -->
<g id="node9" class="node"><title>Node9</title>
<polygon fill="none" stroke="#bfbfbf" points="55,-56.5 55,-75.5 109,-75.5 109,-56.5 55,-56.5"/>
<text text-anchor="middle" x="82" y="-63.5" font-family="Helvetica,sans-Serif" font-size="10.00">iostream</text>
</g>
<!-- Node8&#45;&gt;Node9 -->
<g id="edge10" class="edge"><title>Node8&#45;&gt;Node9</title>
<path fill="none" stroke="midnightblue" d="M82,-112.083C82,-105.006 82,-94.8611 82,-85.9865"/>
<polygon fill="midnightblue" stroke="midnightblue" points="85.5001,-85.751 82,-75.7511 78.5001,-85.7511 85.5001,-85.751"/>
</g>
</g>
</svg>
