<?xml version="1.0" encoding="UTF-8" standalone="no"?>
<!DOCTYPE svg PUBLIC "-//W3C//DTD SVG 1.1//EN"
 "http://www.w3.org/Graphics/SVG/1.1/DTD/svg11.dtd">
<!-- Generated by graphviz version 2.36.0 (20140111.2315)
 -->
<!-- Title: match Pages: 1 -->
<svg width="205pt" height="250pt"
 viewBox="0.00 0.00 205.00 250.00" xmlns="http://www.w3.org/2000/svg" xmlns:xlink="http://www.w3.org/1999/xlink">
<g id="graph0" class="graph" transform="scale(1 1) rotate(0) translate(4 246)">
<title>match</title>
<!-- Node1 -->
<g id="node1" class="node"><title>Node1</title>
<polygon fill="#bfbfbf" stroke="black" points="48,-1 48,-91 162,-91 162,-1 48,-1"/>
<text text-anchor="middle" x="105" y="-79" font-family="Helvetica,sans-Serif" font-size="10.00">match</text>
<polyline fill="none" stroke="black" points="48,-72 162,-72 "/>
<text text-anchor="start" x="56" y="-60" font-family="Helvetica,sans-Serif" font-size="10.00">&#45; cards</text>
<polyline fill="none" stroke="black" points="48,-53 162,-53 "/>
<text text-anchor="start" x="56" y="-41" font-family="Helvetica,sans-Serif" font-size="10.00">+ match()</text>
<text text-anchor="start" x="56" y="-30" font-family="Helvetica,sans-Serif" font-size="10.00">&#45; buildMasterDeck()</text>
<text text-anchor="start" x="56" y="-19" font-family="Helvetica,sans-Serif" font-size="10.00">&#45; getCardsFromDeck()</text>
<text text-anchor="start" x="56" y="-8" font-family="Helvetica,sans-Serif" font-size="10.00">&#45; dealCards()</text>
</g>
<!-- Node2 -->
<g id="node2" class="node"><title>Node2</title>
<g id="a_node2"><a xlink:href="../../d7/dab/classdeck.html" target="_top" xlink:title="Die Klasse deck repräsentiert ein gewöhnliches Kartendeck. ">
<polygon fill="none" stroke="black" points="-0.5,-140.5 -0.5,-241.5 102.5,-241.5 102.5,-140.5 -0.5,-140.5"/>
<text text-anchor="middle" x="51" y="-229.5" font-family="Helvetica,sans-Serif" font-size="10.00">deck</text>
<polyline fill="none" stroke="black" points="-0.5,-222.5 102.5,-222.5 "/>
<text text-anchor="start" x="7.5" y="-210.5" font-family="Helvetica,sans-Serif" font-size="10.00">&#45; cards</text>
<polyline fill="none" stroke="black" points="-0.5,-203.5 102.5,-203.5 "/>
<text text-anchor="start" x="7.5" y="-191.5" font-family="Helvetica,sans-Serif" font-size="10.00">+ deck()</text>
<text text-anchor="start" x="7.5" y="-180.5" font-family="Helvetica,sans-Serif" font-size="10.00">+ getCards()</text>
<text text-anchor="start" x="7.5" y="-169.5" font-family="Helvetica,sans-Serif" font-size="10.00">+ isEmpty()</text>
<text text-anchor="start" x="7.5" y="-158.5" font-family="Helvetica,sans-Serif" font-size="10.00">+ getRandomCard()</text>
<text text-anchor="start" x="7.5" y="-147.5" font-family="Helvetica,sans-Serif" font-size="10.00">&#45; remove()</text>
</a>
</g>
</g>
<!-- Node2&#45;&gt;Node1 -->
<g id="edge1" class="edge"><title>Node2&#45;&gt;Node1</title>
<path fill="none" stroke="#404040" d="M69.735,-140.387C74.3529,-128.158 79.3277,-114.984 84.0432,-102.497"/>
<polygon fill="none" stroke="#404040" points="84.044,-102.495 82.4215,-95.4683 88.2833,-91.2683 89.9057,-98.2945 84.044,-102.495"/>
<text text-anchor="middle" x="96.5" y="-113.5" font-family="Helvetica,sans-Serif" font-size="10.00"> &#45;decks</text>
</g>
<!-- Node3 -->
<g id="node3" class="node"><title>Node3</title>
<g id="a_node3"><a xlink:href="../../dc/d2e/classplayer.html" target="_top" xlink:title="Die Klasse player stellt einen Teilernehmer des Kartenspiels match dar. ">
<polygon fill="none" stroke="black" points="120.5,-151.5 120.5,-230.5 197.5,-230.5 197.5,-151.5 120.5,-151.5"/>
<text text-anchor="middle" x="159" y="-218.5" font-family="Helvetica,sans-Serif" font-size="10.00">player</text>
<polyline fill="none" stroke="black" points="120.5,-211.5 197.5,-211.5 "/>
<text text-anchor="start" x="128.5" y="-199.5" font-family="Helvetica,sans-Serif" font-size="10.00">&#45; cards</text>
<polyline fill="none" stroke="black" points="120.5,-192.5 197.5,-192.5 "/>
<text text-anchor="start" x="128.5" y="-180.5" font-family="Helvetica,sans-Serif" font-size="10.00">+ player()</text>
<text text-anchor="start" x="128.5" y="-169.5" font-family="Helvetica,sans-Serif" font-size="10.00">+ getCard()</text>
<text text-anchor="start" x="128.5" y="-158.5" font-family="Helvetica,sans-Serif" font-size="10.00">+ printCards()</text>
</a>
</g>
</g>
<!-- Node3&#45;&gt;Node1 -->
<g id="edge2" class="edge"><title>Node3&#45;&gt;Node1</title>
<path fill="none" stroke="#404040" d="M144.387,-151.302C138.732,-136.326 132.151,-118.899 126.006,-102.627"/>
<polygon fill="none" stroke="#404040" points="125.868,-102.26 120.006,-98.0604 121.628,-91.0342 127.49,-95.2342 125.868,-102.26"/>
<text text-anchor="middle" x="151" y="-113.5" font-family="Helvetica,sans-Serif" font-size="10.00"> &#45;players</text>
</g>
</g>
</svg>
